<svg width="20" height="20" viewBox="0 0 20 20" fill="none" xmlns="http://www.w3.org/2000/svg">
<rect width="20" height="20" fill="white"/>
<path d="M12.4999 16.725C12.4822 16.725 12.4667 16.7218 12.4534 16.7164C12.4405 16.7113 12.4265 16.7028 12.4118 16.6881L6.97846 11.2548C6.29038 10.5667 6.29038 9.43331 6.97846 8.74524L12.4118 3.3119L12.0655 2.96556L12.4118 3.3119C12.4333 3.29038 12.4641 3.2771 12.4999 3.2771C12.5358 3.2771 12.5665 3.29038 12.588 3.3119C12.6095 3.33343 12.6228 3.36417 12.6228 3.40002C12.6228 3.43587 12.6095 3.4666 12.588 3.48813L7.15468 8.92146C6.55942 9.51673 6.55942 10.4833 7.15468 11.0786L12.588 16.5119C12.6095 16.5334 12.6228 16.5642 12.6228 16.6C12.6228 16.633 12.6116 16.6616 12.5931 16.6827C12.5531 16.7171 12.517 16.725 12.4999 16.725Z" stroke="#9C9C9C"/>
</svg>
